<?xml version="1.0" standalone="no"?>
<!DOCTYPE svg PUBLIC "-//W3C//DTD SVG 20010904//EN"
 "http://www.w3.org/TR/2001/REC-SVG-20010904/DTD/svg10.dtd">
<svg version="1.0" xmlns="http://www.w3.org/2000/svg"
 width="512.000000pt" height="512.000000pt" viewBox="0 0 512.000000 512.000000"
 preserveAspectRatio="xMidYMid meet">
<metadata>
Created by potrace 1.14, written by Peter Selinger 2001-2017
</metadata>
<g transform="translate(0.000000,512.000000) scale(0.100000,-0.100000)"
fill="#000000" stroke="none">
<path d="M0 2560 l0 -2560 2560 0 2560 0 0 2560 0 2560 -2560 0 -2560 0 0
-2560z m3688 -459 c333 -96 547 -383 582 -781 18 -206 -16 -400 -99 -575 -126
-264 -340 -419 -628 -455 -192 -25 -415 25 -563 124 -312 209 -457 689 -335
1110 85 295 309 518 580 580 39 8 79 18 90 20 11 3 83 3 160 1 104 -2 159 -9
213 -24z m-2718 -1 c219 -27 387 -116 451 -241 69 -136 66 -353 -8 -478 -56
-96 -149 -172 -264 -215 l-62 -23 38 -7 c84 -16 183 -90 232 -174 15 -25 52
-105 84 -179 110 -254 160 -319 267 -345 53 -13 57 -16 60 -45 2 -18 -2 -41
-8 -53 -10 -19 -19 -20 -205 -20 l-193 0 -31 26 c-47 39 -72 91 -146 294 -80
219 -118 298 -175 363 -71 80 -102 91 -267 95 l-143 4 0 -292 c0 -181 4 -299
10 -311 16 -29 62 -48 147 -60 43 -6 84 -15 91 -21 17 -14 15 -49 -4 -76 l-15
-22 -344 0 c-330 0 -345 1 -355 19 -14 27 -13 66 3 79 6 5 32 13 57 17 64 9
112 25 133 43 16 14 17 61 17 724 l0 709 -23 23 c-22 22 -100 46 -150 46 -13
0 -28 5 -35 12 -18 18 -15 63 6 87 16 20 26 21 272 24 140 1 305 3 365 5 61 1
149 -3 195 -8z m1260 -1480 c51 -26 90 -91 90 -150 0 -113 -121 -204 -225
-170 -119 39 -167 181 -93 275 52 66 149 85 228 45z m2595 -3 c57 -32 85 -79
85 -141 0 -178 -220 -246 -320 -99 -33 49 -34 132 -2 185 45 73 158 100 237
55z"/>
<path d="M3260 1991 c-156 -50 -242 -145 -293 -321 -34 -118 -47 -236 -47
-438 0 -373 50 -579 172 -704 160 -165 526 -170 687 -9 121 121 168 281 178
612 16 529 -85 778 -348 860 -82 26 -270 26 -349 0z"/>
<path d="M600 1595 l0 -385 128 0 c158 0 230 12 306 53 110 58 159 163 159
337 0 175 -47 269 -163 328 -84 42 -143 52 -301 52 l-129 0 0 -385z"/>
</g>
</svg>
